<?xml version="1.0" encoding="UTF-8" standalone="no"?>
<svg
   width="250.07771pt"
   height="251.2645pt"
   viewBox="0 0 250.07771 251.26449"
   version="1.1"
   id="svg7"
   sodipodi:docname="Logo.svg"
   inkscape:version="1.4 (e7c3feb100, 2024-10-09)"
   xml:space="preserve"
   inkscape:export-filename="Logo.png"
   inkscape:export-xdpi="96"
   inkscape:export-ydpi="96"
   xmlns:inkscape="http://www.inkscape.org/namespaces/inkscape"
   xmlns:sodipodi="http://sodipodi.sourceforge.net/DTD/sodipodi-0.dtd"
   xmlns="http://www.w3.org/2000/svg"
   xmlns:svg="http://www.w3.org/2000/svg"><defs
     id="defs7" /><sodipodi:namedview
     id="namedview7"
     pagecolor="#ffffff"
     bordercolor="#000000"
     borderopacity="0.25"
     inkscape:showpageshadow="2"
     inkscape:pageopacity="0.0"
     inkscape:pagecheckerboard="0"
     inkscape:deskcolor="#d1d1d1"
     inkscape:document-units="pt"
     inkscape:zoom="2.4697266"
     inkscape:cx="143.53816"
     inkscape:cy="173.50099"
     inkscape:window-width="1920"
     inkscape:window-height="1052"
     inkscape:window-x="0"
     inkscape:window-y="0"
     inkscape:window-maximized="1"
     inkscape:current-layer="svg7" /><g
     id="#ffc000ff-3"
     style="display:inline"
     inkscape:label="Background"
     transform="translate(-3.4266823,-2.4781467)"><path
       fill="#ffc000"
       opacity="1"
       d="M 44.37,3.27 C 46.22,2.91 48.09,2.62 49.98,2.58 99.99,2.55 149.99,2.63 200,2.54 c 9.92,-0.43 20.21,1.34 28.75,6.63 6.14,3.27 10.84,8.52 15.53,13.54 5.67,7.54 8.78,16.86 9.13,26.27 0.03,51.34 -0.03,102.68 0.03,154.02 0.44,8.21 -1.41,16.43 -4.47,24.01 -3.48,6.52 -7.88,12.94 -14.4,16.74 -6.41,5.32 -14.41,8.44 -22.54,9.86 -55.69,-0.08 -111.39,0.27 -167.08,0.07 -3.27,-0.01 -6.29,-1.35 -9.34,-2.34 C 17.63,245.65 3.63,228.1 3.49,209.01 3.49,156.68 3.58,104.34 3.48,52.01 3.09,45.38 4.91,38.91 6.64,32.58 10.71,22.52 18.16,13.55 28.16,8.97 c 4.96,-3 10.49,-4.83 16.21,-5.7"
       id="path1-5"
       sodipodi:nodetypes="ccccccccccccccccc"
       style="display:inline"
       inkscape:label="Yellow" /></g><g
     id="#ffc000ff"
     style="display:inline;stroke:#000080"
     inkscape:label="Wings"
     transform="translate(6.1089289,12.441969)"><path
       class="st0"
       d="m 170.15171,162.2357 c -7.22043,-5.75942 -11.47652,-12.0328 -13.1844,-18.73218 -3.5809,-14.03841 2.58036,-26.38037 13.44141,-36.62745 11.42338,-10.77814 24.49176,-15.6156 36.34569,-24.35613 5.9213,-4.361585 12.7036,-10.891255 23.5104,-24.019939 6.62598,10.35953 -3.0692,31.302929 -23.00277,45.505669 6.85765,-1.1717 13.7418,-4.80736 20.65717,-11.66495 2.47763,14.42144 -6.92642,25.60483 -31.20427,34.28734 5.63043,0.64655 11.93512,-0.58818 19.4773,-4.55025 -2.27707,27.42554 -38.05767,15.68642 -46.04053,40.15789 z"
       id="path1-1-2"
       style="clip-rule:evenodd;display:inline;fill:#f9f9f9;fill-rule:evenodd;stroke:#000080;stroke-width:0.733305"
       inkscape:label="Right_wing" /><path
       class="st0"
       d="m 67.354096,155.16996 c 7.220429,-5.75942 11.476525,-12.0328 13.184403,-18.73218 C 84.119396,122.39937 77.958138,110.05741 67.097083,99.810329 55.673707,89.032192 42.605323,84.194728 30.751396,75.454198 24.830095,71.092613 18.047798,64.562943 7.2410007,51.434259 0.61501978,61.793789 10.310201,82.737185 30.243763,96.939929 23.386118,95.768229 16.501969,92.132571 9.5865967,85.274975 7.1089707,99.696419 16.513017,110.87981 40.790867,119.56232 c -5.630425,0.64655 -11.935117,-0.58818 -19.477304,-4.55025 2.277074,27.42554 38.057671,15.68642 46.040533,40.15789 z"
       id="path1-1"
       style="clip-rule:evenodd;display:inline;fill:#f9f9f9;fill-rule:evenodd;stroke:#000080;stroke-width:0.733305"
       inkscape:label="Left_wing" /></g><g
     id="#00deffff"
     transform="matrix(1,0,0,1.0156847,6.1089289,9.021904)"
     style="display:inline"
     inkscape:label="Main"><path
       style="display:inline;fill:#ffbf00;stroke-width:1.9504"
       d="m 105.69046,142.0453 20.69518,-16.05966 18.52276,18.57575 -20.7047,16.09651 z"
       id="path2"
       inkscape:label="Inside"
       sodipodi:nodetypes="ccccc" /><path
       fill="#00deff"
       opacity="1"
       d="m 116.49,73.916836 c 3.59,-2.92 5.96,-7.46 10.35,-9.28 3.22,2.06 8.74998,8.25 8.74998,8.25 l 13.61002,15.54 c 3.73,3.22 7.1,6.82 10.25,10.599998 3.03,3.650006 6.65,6.760006 9.54,10.540006 2.67,3.59 5.92,6.68 8.98,9.94 6.97,7.71 13.9,15.45 21.05,22.99 0.59,0.93 2.32,2.1 1.21,3.27 -8.87,9.5 -19.85,16.71 -28.81,26.13 -11,9.99 -21.87,20.13 -32.72,30.29 -5.11,4.58 -10.41,9.02 -14.61,14.5 -1.27,1.4 -3.39,4.27 -5.24,1.99 -4.66,-4.25 -8.42,-9.37 -12.61,-14.06 -6.11,-6.03 -11.42,-12.8 -17.14,-19.18 -5.65,-7 -11.44,-14.02 -18.38,-19.8 -0.65,-0.65 -1.23,-1.35 -1.75,-2.09 -6.57,-9.05 -15.15,-16.43 -22.22,-25.04 2.17,-2.6 4.89,-4.65 7.46,-6.83 5.47,-4.52 10.19,-9.85 15.63,-14.41 4.89,-4.09 9.15,-8.83 13.53,-13.42 10.85,-10.190004 21.97,-20.080004 33.12,-29.930004 m -5.18,66.560004 c 3.25,4.69 7.06,9.32 11.66,12.74 3.71,-2.05 6.56,-5.27 9.7,-8.07 1.02,-1.15 2.49,-2.13 2.92,-3.67 -0.76,-1.91 -2.51,-3.22 -3.78,-4.79 -2.59,-2.66 -4.61,-5.95 -7.79,-7.96 -4.52,3.52 -9.28,7.12 -12.71,11.75 z"
       id="path7"
       sodipodi:nodetypes="ccccccccccccccccccccccccccccc"
       style="display:inline;stroke:#000080"
       inkscape:label="Blue" /><path
       fill="#000000"
       opacity="1"
       d="m 93.816824,17.598841 c 21.583316,-5.234606 44.545036,-5.040732 66.036916,0.581623 7.06785,2.167237 14.52953,4.916098 19.38208,10.704631 2.8412,3.219698 3.45305,7.810365 2.39814,11.860953 l -0.33757,0.671636 c -3.27019,6.688663 -10.47166,10.150704 -17.20194,12.594905 -16.64637,5.518494 -34.53752,6.384003 -51.93638,5.082276 -10.52793,-1.184018 -21.217605,-2.970431 -30.831285,-7.561097 -4.83146,-2.409581 -9.817632,-5.823154 -11.56877,-11.127 -1.758171,-4.756845 0.407896,-10.157629 4.06489,-13.453492 5.59802,-4.916098 12.84168,-7.519554 19.993919,-9.354435 m 12.025896,7.637262 c -7.92583,1.336348 -16.097815,3.005052 -22.940615,7.367224 -1.47687,1.128626 -3.35459,2.333416 -3.74139,4.251387 0.79469,2.188009 2.82011,3.61437 4.78222,4.729147 6.68105,3.808246 14.311525,5.497722 21.850555,6.71636 8.57285,1.315576 17.26524,1.585615 25.92951,1.343272 10.26772,-0.609319 20.67609,-1.827957 30.33197,-5.497721 3.84688,-1.647932 8.10868,-3.448193 10.27475,-7.221817 -1.00567,-2.471898 -3.2913,-4.126754 -5.58395,-5.366164 -10.113,-5.227682 -21.6677,-6.598651 -32.8778,-7.609567 -9.3605,-0.152329 -18.77023,-0.290811 -28.02525,1.287879"
       id="path20"
       sodipodi:nodetypes="cccccccccccccccccccccc"
       inkscape:label="Halo"
       style="display:inline;fill:#d9d51e;fill-opacity:1;stroke:#000080;stroke-width:0.697817" /></g><style
     type="text/css"
     id="style1">.st0{fill-rule:evenodd;clip-rule:evenodd;}</style><style
     type="text/css"
     id="style1-6">.st0{fill-rule:evenodd;clip-rule:evenodd;}</style><style
     type="text/css"
     id="style1-2">.st0{fill-rule:evenodd;clip-rule:evenodd;}</style><style
     type="text/css"
     id="style1-9">.st0{fill-rule:evenodd;clip-rule:evenodd;}</style></svg>
