<?xml version="1.0" encoding="UTF-8" standalone="no"?>
<svg
   width="253.74493pt"
   height="250.85753pt"
   viewBox="0 0 253.74493 250.85753"
   version="1.1"
   id="svg30"
   sodipodi:docname="Logo.svg"
   inkscape:version="1.4 (e7c3feb100, 2024-10-09)"
   xmlns:inkscape="http://www.inkscape.org/namespaces/inkscape"
   xmlns:sodipodi="http://sodipodi.sourceforge.net/DTD/sodipodi-0.dtd"
   xmlns="http://www.w3.org/2000/svg"
   xmlns:svg="http://www.w3.org/2000/svg">
  <defs
     id="defs30" />
  <sodipodi:namedview
     id="namedview30"
     pagecolor="#505050"
     bordercolor="#ffffff"
     borderopacity="1"
     inkscape:showpageshadow="0"
     inkscape:pageopacity="0"
     inkscape:pagecheckerboard="1"
     inkscape:deskcolor="#505050"
     inkscape:document-units="pt"
     inkscape:zoom="2.4726563"
     inkscape:cx="231.53239"
     inkscape:cy="345.37757"
     inkscape:window-width="1920"
     inkscape:window-height="1052"
     inkscape:window-x="0"
     inkscape:window-y="0"
     inkscape:window-maximized="1"
     inkscape:current-layer="svg30" />
  <g
     id="#00000053"
     transform="translate(-1.2000921,-3.158199)" />
  <g
     id="#0c0503ef"
     style="stroke-width:1000;stroke-dasharray:none;paint-order:stroke fill markers"
     transform="matrix(0.99821016,0,0,0.98393886,-1.1979442,-0.57068454)">
    <path
       fill="#0c0503"
       opacity="0.94"
       d="m 27.32,6.3 c 5.31,-2.95 11.4,-3.79 17.11,-5.63 4.16,0.63 8.38,0.6 12.57,0.55 47,-0.11 94,0.12 141,-0.13 4.86,0.03 9.75,0.19 14.58,-0.51 5.68,1.93 11.74,2.9 17.06,5.8 5.48,2.94 9.83,7.47 14.09,11.9 6.51,6.5 9.41,15.45 11.64,24.14 -0.71,5.16 -0.47,10.38 -0.47,15.58 0.01,46.67 0,93.33 0.01,140 0.02,5.53 -0.3,11.1 0.49,16.6 -2.16,6.02 -3.1,12.61 -6.93,17.91 -5.17,8.68 -13.47,15.08 -22.48,19.4 -9.1,4.19 -27.87408,3.61067 -28.22035,3.55654 l -45.38982,-0.2012 c 0,0 -15.03983,0.33466 -22.37983,0.25466 -27,0.01 -54.01,0.02 -81.01,-0.01 -11.73,0.14 -23.72,-4.03 -32.11,-12.4 C 7.62,234.74 1.3,222.67 1.25,210.05 1.27,157.37 1.49,104.69 1.36,52.01 -0.29,33.3 11,14.98 27.32,6.3 m 3.54,1.75 C 23.14,11.19 16.88,17.25 12.06,23.93 9.69,27.92 6.78,31.94 6.2,36.66 5.62,38.26 5.3,39.94 5.14,41.64 2.91,44.66 3.66,48.52 3.56,52.01 3.66,104.34 3.52,156.67 3.52,209 c 0.38,11.48 5.47,22.77 13.85,30.63 5.36,5.47 12.06,10.45 19.92,11.16 0.99,0.38 0.623394,0.95697 1.693394,1.08697 0,0 100.629316,1.03465 147.026606,1.51303 6.66,-0.08 19.83807,-0.72481 19.83807,-0.72481 0,0 10.29458,-0.596 10.26193,-0.71519 l -1.18,0.06 c 9.54,-1.44 17.97,-6.7 24.92,-13.17 3.14,-3.53 5.82,-7.49 8.16,-11.59 3.65,-6.05 4.95,-13.26 5.28,-20.23 -0.04,-52.35 0,-104.7 -0.02,-157.04 C 252.73,40 250.23,29.14 242.86,21.94 236.82,15.25 230.09,8.26 220.94,6.22 215.79,3.42 209.78,2.78 204,2.61 152.66,2.85 101.31,2.59 49.97,2.76 43.48,3.72 36.35,4.06 30.86,8.05 Z"
       id="path2"
       style="stroke-width:1000;stroke-dasharray:none;paint-order:stroke fill markers"
       sodipodi:nodetypes="ccccccccccccccccccccccccccccccccccccccccccc" />
  </g>
  <g
     id="#8c624aff"
     transform="translate(-1.2000921,-3.158199)" />
  <g
     id="#e5a744ff"
     transform="translate(-1.2000921,-3.158199)" />
  <g
     id="#ffbf00ff"
     transform="matrix(1.0160404,0,0,1.0061628,-3.7140068,-3.1922448)">
    <path
       fill="#ffbf00"
       opacity="1"
       d="M 38.59,7.63 C 47.82,4.93 57.51,5.68 67,5.65 c 40,-0.02 80.01,0.01 120.02,-0.02 11.13,-0.01 22.51,-0.84 33.33,2.32 8.2,2.28 14.78,8.18 20.16,14.53 5.51,6.48 8.54,14.7 9.99,23 1.16,6.78 0.66,13.68 0.69,20.52 0.04,45.67 -0.05,91.35 0.04,137.02 -0.31,12.8 -4.23,26.37 -13.97,35.21 -7.97,6.62 -17.4161,11.23635 -27.9961,11.58635 -16.68,0.79 -29.55376,0.21755 -48.62199,0.36146 -7.21,0.07 -23.70409,0.0764 -23.70409,0.0764 -21.19681,-0.63582 -66.776814,0.18 -66.776814,0.18 0,0 -29.31612,0.0978 -35.497644,-3.06684 C 17.593362,241.41734 5.59,225.13 5.45,207.04 5.42,155.69 5.64,104.34 5.49,52.99 5.49,49.08 5.94,45.19 6.46,41.32 7.37,38.63 8.38,35.98 9.48,33.37 14.59,20.98 25.58,11.05 38.59,7.63"
       id="path5"
       sodipodi:nodetypes="ccccccccccccccccccc" />
    <path
       fill="#ffbf00"
       opacity="1"
       d="m 96.37,39.44 c 12.18,-1.43 24.32,-4.2 36.67,-3.39 9.99,0.69 19.95,2.02 29.72,4.26 2.64,0.55 4.83,2.18 6.96,3.73 -5.64,4.48 -13.06,4.78 -19.87,5.81 -10.08,1.25 -20.29,3.02 -30.45,1.61 -9.16,-1.46 -18.53,-1.78 -27.46,-4.45 -2.05,-0.66 -3.84,-1.88 -5.66,-2.99 2.97,-2.25 6.28,-4.25 10.09,-4.58 z"
       id="path6" />
  </g>
  <g
     id="#895e40ff"
     transform="translate(-1.2000921,-3.158199)" />
  <g
     id="#ffd601ff"
     transform="translate(-1.2000921,-3.158199)">
    <path
       fill="#ffd601"
       opacity="1"
       d="m 113.99,28.88 c 16.68,-0.67 33.55,-0.37 49.92,3.24 4.98,1.39 9.94,3.63 13.64,7.32 3.23,4.02 0.35,10.15 -3.78,12.34 -6.64,3.54 -14.23,4.81 -21.65,5.51 -20.85,2.98 -42.42,3.07 -62.88,-2.46 -4.4,-1.28 -8.33,-3.68 -12.2,-6.05 0.03,-2.47 -0.13,-4.98 0.39,-7.41 1.27,-4.14 5.45,-6.32 9.24,-7.71 8.77,-3.11 18.13,-3.81 27.32,-4.78 M 96.37,39.44 c -3.81,0.33 -7.12,2.33 -10.09,4.58 1.82,1.11 3.61,2.33 5.66,2.99 8.93,2.67 18.3,2.99 27.46,4.45 10.16,1.41 20.37,-0.36 30.45,-1.61 6.81,-1.03 14.23,-1.33 19.87,-5.81 -2.13,-1.55 -4.32,-3.18 -6.96,-3.73 -9.77,-2.24 -19.73,-3.57 -29.72,-4.26 -12.35,-0.81 -24.49,1.96 -36.67,3.39 z"
       id="path8" />
  </g>
  <g
     id="#ffd289ff"
     transform="translate(-1.2000921,-3.158199)" />
  <g
     id="#b07c57ff"
     transform="translate(-1.2000921,-3.158199)" />
  <g
     id="#00000048"
     transform="translate(-1.2000921,-3.158199)" />
  <g
     id="#ffffffff"
     transform="translate(-1.2000921,-3.158199)">
    <path
       fill="#ffffff"
       opacity="1"
       d="m 224.84,55.47 3.63,-0.18 c 2.69,9.67 2.01,19.97 -0.99,29.48 -1.5,4.19 -3.58,8.15 -5.46,12.18 2.43,-2.45 5.04,-4.94 8.55,-5.67 -0.09,4.2 0.32,8.52 -0.91,12.61 -0.9,3.56 -3,6.65 -4.19,10.1 -0.41,3.61 0.94,7.5 -0.76,10.89 -2.27,4.76 -5.63,8.89 -8.98,12.91 -3.1,3.71 -8.25619,4.61528 -12.31619,7.01528 l -0.29234,-0.48807 c -1.43,-2.57 -2.79147,-4.45721 -4.73147,-6.65721 -5.02,-5.64 -10.01,-11.31 -15.31,-16.68 0.0656,0.0506 -9.39867,-8.64005 -13.38867,-13.38005 C 176.29133,105.27995 183.18,99.8 188.94,96 c 5.47,-3.44 10.04,-8.05 15.05,-12.09 3.69,-3.57 7.57,-7.05 10.61,-11.21 3.22,-5.87 7.99,-10.81 10.24,-17.23 z"
       id="path18"
       sodipodi:nodetypes="cccccccccccccccccc" />
    <path
       fill="#ffffff"
       opacity="1"
       d="M 32.76,97.52 C 26.23,84.57 21.38,69.05 26.85,54.86 c 4.62,5.68 7.29,12.65 12.02,18.26 2.68,3.34 5.83,6.27 9.08,9.05 0.65,0.59 1.28,1.19 1.89,1.82 8.8,9.72 20.33,16.19 31.02,23.54 -10.48,9.96 -20.84,20.06 -31.94,29.35 3.9,3.7 7.42,7.77 10.47,12.19 -4.73,-1.95 -9.57,-3.75 -13.87,-6.58 -8.38,-5.32 -15.28,-13.78 -16.87,-23.78 3.76,1.94 7.56,3.8 11.5,5.34 -3.13,-3.26 -6.72,-6.05 -9.72,-9.44 -5.12,-6.3 -6.73,-14.72 -5.91,-22.66 2.76,1.84 5.47,3.75 8.24,5.57 z"
       id="path19" />
  </g>
  <g
     id="#a7d1bdff"
     transform="translate(-1.2000921,-3.158199)" />
  <g
     id="#00deffff"
     transform="translate(-1.2000921,-3.158199)">
    <path
       fill="#00deff"
       opacity="1"
       d="m 122.84,68.96 c 2.29,-1.75 4.66,-3.39 7.03,-5.04 8.05,7.7 14.57,16.89 23.16,24.04 2.69,3.91 5.68,7.62 8.99,11.02 7.04,7.32 13.39,15.31 21.06,22 5.3,5.37 10.29,11.04 15.31,16.68 1.94,2.2 3.65,4.61 5.08,7.18 -3.52,2.8 -6.71,5.97 -10.26,8.72 -7.69,5.44 -13.91,12.58 -21.09,18.62 -8.81,8.52 -17.91,16.72 -26.87,25.07 -4.72,4.29 -9.54,8.5 -13.57,13.47 -2.61,2.34 -5.07,4.87 -7.91,6.92 -1.31,-0.64 -2.49,-1.52 -3.62,-2.42 -4.15,-6.8 -10.26,-12 -15.32,-18.07 -3.39,-3.99 -7.16,-7.62 -11,-11.17 -5.9,-6.09 -11.15,-12.79 -17.45,-18.5 l -0.76,-0.84 c -2.53,-3.33 -5.26,-6.51 -8.39,-9.29 -2.52,-2.46 -4.96,-5 -7.29,-7.64 l -0.55,-0.64 c -3.05,-4.42 -6.57,-8.49 -10.47,-12.19 11.1,-9.29 21.46,-19.39 31.94,-29.35 8.24,-7.78 17.01,-15.04 24.76,-23.33 1.82,-1.87 3.68,-3.72 5.69,-5.4 4.02,-3.06 7.93,-6.28 11.53,-9.84 m -1.21895,63.92425 -4.95586,5.47421 c 9.75047,12.56289 9.70408,12.30743 9.70408,12.30743 l 6.88176,-6.43156 4.11248,-4.53615 -4.68908,-6.44989 L 127.62,127.39 Z"
       id="path21"
       sodipodi:nodetypes="ccccccccccccccccccccccccccccccccc" />
  </g>
  <g
     id="#e7c574ff"
     transform="translate(-1.2000921,-3.158199)">
    <path
       fill="#e7c574"
       opacity="1"
       d="m 152.33,86.19 c 4.3,2.11 7.61,5.79 9.66,10.09 -2.9,-2.87 -6.05,-5.47 -8.96,-8.32 -0.17,-0.44 -0.53,-1.33 -0.7,-1.77 z"
       id="path22" />
  </g>
  <g
     id="#85ddeaff"
     transform="translate(-1.2000921,-3.158199)" />
  <g
     id="#9dd3c9ff"
     transform="translate(-1.2000921,-3.158199)" />
  <g
     id="#ffbf01ff"
     transform="translate(-1.2000921,-3.158199)" />
  <g
     id="#b4cfb1ff"
     transform="translate(-1.2000921,-3.158199)" />
  <g
     id="#b7ceafff"
     transform="translate(-1.2000921,-3.158199)" />
  <g
     id="#a5d2c3ff"
     transform="translate(-1.2000921,-3.158199)" />
  <g
     id="#734d3cfe"
     transform="translate(-1.2000921,-3.158199)" />
</svg>
